<svg width="31" height="33" viewBox="0 0 31 33" fill="none" xmlns="http://www.w3.org/2000/svg">
<path fill-rule="evenodd" clip-rule="evenodd" d="M30.9629 27.8349C30.9629 30.5963 28.7246 32.8349 25.9629 32.8349H20.6826C17.6182 31.5535 15.4639 28.5269 15.4639 24.9973C15.4639 20.3076 19.2656 16.5058 23.9551 16.5058C26.8652 16.5058 29.4326 17.9695 30.9629 20.2009V27.8349ZM13.9639 24.9973C13.9639 28.1742 15.4463 31.0049 17.7578 32.8349H5.16016C2.39844 32.8349 0.160156 30.5963 0.160156 27.8349V12.8702H30.9629V17.8755C29.1592 16.1008 26.6855 15.0058 23.9551 15.0058C18.4375 15.0058 13.9639 19.4792 13.9639 24.9973ZM24.9551 21.1417C24.9551 20.5894 24.5078 20.1417 23.9551 20.1417C23.4023 20.1417 22.9551 20.5894 22.9551 21.1417V24.7775C22.9551 25.1185 23.1289 25.4359 23.416 25.6197L25.6875 27.0741C26.1533 27.3718 26.7715 27.2361 27.0693 26.771C27.3672 26.3058 27.2314 25.6874 26.7666 25.3896L24.9551 24.2303V21.1417Z" fill="#080808"/>
<path fill-rule="evenodd" clip-rule="evenodd" d="M23.0547 1.97823C23.0547 1.42594 22.607 0.978226 22.0547 0.978226C21.5024 0.978226 21.0547 1.42594 21.0547 1.97823V3.88425H23.0547V1.97823Z" fill="#080808"/>
<path fill-rule="evenodd" clip-rule="evenodd" d="M10.0684 1.97823C10.0684 1.42594 9.62064 0.978226 9.06836 0.978226C8.51607 0.978226 8.06836 1.42594 8.06836 1.97823V3.88425H10.0684V1.97823Z" fill="#080808"/>
<path fill-rule="evenodd" clip-rule="evenodd" d="M0.160156 8.88425C0.160156 6.12282 2.39844 3.88425 5.16016 3.88425H8.06836V7.14062C8.06836 7.69292 8.51562 8.14062 9.06836 8.14062C9.62109 8.14062 10.0684 7.69292 10.0684 7.14062V3.88425H21.0547V7.14062C21.0547 7.69292 21.502 8.14062 22.0547 8.14062C22.6074 8.14062 23.0547 7.69292 23.0547 7.14062V3.88425H25.9629C28.7246 3.88425 30.9629 6.12282 30.9629 8.88425V10.6167H0.160156V8.88425Z" fill="#080808"/>
</svg>
